<?xml version="1.0" standalone="no"?>
<!DOCTYPE svg PUBLIC "-//W3C//DTD SVG 20010904//EN"
 "http://www.w3.org/TR/2001/REC-SVG-20010904/DTD/svg10.dtd">
<svg version="1.0" xmlns="http://www.w3.org/2000/svg"
 width="260.000000pt" height="260.000000pt" viewBox="0 0 260.000000 260.000000"
 preserveAspectRatio="xMidYMid meet">
<metadata>
Created by potrace 1.11, written by Peter Selinger 2001-2013
</metadata>
<g transform="translate(0.000000,260.000000) scale(0.100000,-0.100000)"
fill="#000000" stroke="none">
<path d="M1165 2215 c-143 -35 -256 -96 -349 -188 -176 -174 -249 -396 -212
-642 10 -64 57 -188 94 -245 51 -80 572 -774 588 -783 9 -5 25 -6 37 -3 26 6
563 720 620 824 105 193 108 441 8 646 -42 87 -129 199 -183 237 -18 13 -41
31 -51 40 -29 26 -158 87 -223 104 -84 23 -254 28 -329 10z m238 -218 c263
-51 442 -312 394 -579 -40 -220 -245 -395 -472 -402 -270 -8 -499 206 -509
477 -9 238 174 467 402 503 21 3 38 7 40 8 4 4 115 -2 145 -7z"/>
<path d="M1225 1885 c-225 -51 -356 -292 -275 -508 99 -264 432 -336 632 -136
151 151 150 388 -2 540 -93 93 -229 133 -355 104z m206 -113 c62 -25 107 -108
95 -177 -2 -17 -5 -33 -5 -37 -2 -16 -56 -70 -85 -85 -18 -9 -60 -17 -101 -18
-38 -2 -73 -3 -76 -4 -3 0 -5 -40 -5 -87 2 -97 -15 -136 -56 -129 -51 10 -53
18 -53 272 0 298 -10 280 147 277 62 0 125 -6 139 -12z"/>
<path d="M1263 1671 c-12 -8 -11 -94 1 -102 4 -4 36 -5 69 -4 62 3 87 19 87
55 0 36 -25 52 -87 55 -33 1 -65 0 -70 -4z"/>
</g>
</svg>
